<svg xmlns="http://www.w3.org/2000/svg" viewBox="0 0 64 64"><g fill="none" stroke="#1ec08f" stroke-linecap="round" stroke-linejoin="round"><path d="M32 32 L32 15.5" stroke-width="5.2"/><path d="M32 19 L22 5.5" stroke-width="4.4"/><path d="M32 19 L42 5.5" stroke-width="4.4"/><path d="M32 32 L46.3 23.8" stroke-width="5.2"/><path d="M43.3 25.5 L49.9 10.1" stroke-width="4.4"/><path d="M43.3 25.5 L59.9 27.4" stroke-width="4.4"/><path d="M32 32 L46.3 40.3" stroke-width="5.2"/><path d="M43.3 38.5 L59.9 36.6" stroke-width="4.4"/><path d="M43.3 38.5 L49.9 53.9" stroke-width="4.4"/><path d="M32 32 L32 48.5" stroke-width="5.2"/><path d="M32 45 L42 58.5" stroke-width="4.4"/><path d="M32 45 L22 58.5" stroke-width="4.4"/><path d="M32 32 L17.7 40.3" stroke-width="5.2"/><path d="M20.7 38.5 L14.1 53.9" stroke-width="4.4"/><path d="M20.7 38.5 L4.1 36.6" stroke-width="4.4"/><path d="M32 32 L17.7 23.8" stroke-width="5.2"/><path d="M20.7 25.5 L4.1 27.4" stroke-width="4.4"/><path d="M20.7 25.5 L14.1 10.1" stroke-width="4.4"/></g><circle cx="32" cy="32" r="4.6" fill="#1ec08f"/></svg>